<svg xmlns="http://www.w3.org/2000/svg" viewBox="0 -24 495.6011 495"><path d="m326.308594 7.046875c-137.425782-34.0625-266.496094 65.3125-277.871094 197.855469l31.871094 2.753906c9.023437-104.898438 104.046875-185.570312 211.296875-174.304688 95.871093 10.0625 171.199219 92.945313 172 189.328126.878906 106.609374-85.585938 193.617187-192 193.617187-4.929688 0-9.875-.195313-14.785157-.5625-8.207031-.621094-15.648437 4.769531-16.878906 12.914063l-.195312 1.277343c-1.34375 8.816407 5.089844 16.976563 13.984375 17.683594 5.9375.445313 11.921875.6875 17.875.6875 134.335937 0 241.421875-118.867187 221.628906-256.945313-12.734375-88.878906-79.773437-162.703124-166.925781-184.304687zm0 0" fill="#66bb6a"/><g fill="#43a047"><path d="m93.011719 359.496094c6.878906 9.085937 14.542969 17.757812 22.800781 25.742187l22.289062-22.976562c-7.074218-6.878907-13.664062-14.300781-19.585937-22.09375zm0 0"/><path d="m156.757812 416.648438c9.886719 5.886718 20.253907 11.039062 30.796876 15.328124l12.035156-29.664062c-9.042969-3.664062-17.9375-8.097656-26.449219-13.167969zm0 0"/><path d="m86.195312 274.3125-30.910156 8.320312c2.992188 11.070313 6.847656 22 11.503906 32.480469l29.246094-13.011719c-3.984375-8.957031-7.296875-18.300781-9.839844-27.789062zm0 0"/></g><path d="m62.164062 246.917969-57.472656-57.453125c-6.253906-6.242188-6.253906-16.386719 0-22.625 6.242188-6.242188 16.367188-6.242188 22.625 0l34.847656 34.832031 34.832032-34.832031c6.238281-6.242188 16.382812-6.242188 22.625 0 6.238281 6.238281 6.238281 16.382812 0 22.625zm0 0" fill="#81c784"/></svg>